<svg width="30" height="30" xmlns="http://www.w3.org/2000/svg">

 <g>
  <title>background</title>
  <rect fill="none" id="canvas_background" height="32" width="32" y="-1" x="-1"/>
 </g>
 <g>
  <title>Layer 1</title>
  <path fill="#ffffff" stroke="null" id="XMLID_223_" d="m29.13832,25.56109l-6.28582,-6.29988c1.29876,-1.9618 2.05896,-4.31076 2.05896,-6.83592c0,-6.84213 -5.55411,-12.40865 -12.38097,-12.40865s-12.38096,5.56652 -12.38096,12.40865s5.5541,12.40865 12.38096,12.40865c2.51953,0 4.86324,-0.76189 6.82067,-2.06356l6.28582,6.29987c0.96572,0.96912 2.53562,0.96912 3.50134,0c0.96695,-0.96911 0.96695,-2.54005 0,-3.50916zm-25.2745,-13.1358c0,-4.78974 3.88762,-8.68606 8.66667,-8.68606s8.66668,3.89632 8.66668,8.68606s-3.88763,8.68605 -8.66668,8.68605s-8.66667,-3.89631 -8.66667,-8.68605z"/>
 </g>
</svg>